<?xml version="1.0" encoding="UTF-8"?><svg id="Layer_2" xmlns="http://www.w3.org/2000/svg" viewBox="0 0 558.07 491.3"><defs><style>.cls-1{fill:#fff;}.cls-2{fill:#009ddc;}.cls-3{fill:#00853f;}.cls-4{fill:#f6a2b6;}.cls-5{fill:#78b48a;}.cls-6{stroke:#261c02;stroke-miterlimit:10;stroke-width:1.55px;}.cls-6,.cls-7{fill:#f79b7a;}.cls-8{fill:#facfd7;}.cls-9{fill:#fbb034;}.cls-10{fill:#c37da1;}.cls-11{fill:#97005e;}.cls-12{fill:#949ca1;}.cls-13{fill:#b06010;}.cls-14{fill:#ee3124;}.cls-15{fill:#c1e4da;}.cls-16{fill:#261c02;}.cls-17{fill:#ffd200;}</style></defs><g><path class="cls-1" d="m48.43,428.91l.44.44v9.34l-.44.44h-18.94v50.44l-.44.44h-9.25l-.44-.44v-50.44H.44l-.44-.44v-9.34l.44-.44h48Z"/><path class="cls-1" d="m67.46,428.91l.44.44v22.69h30.98v-22.69l.44-.44h9.34l.44.44v60.21l-.44.44h-9.34l-.44-.44v-27.31h-30.98v27.31l-.44.44h-9.25l-.44-.44v-60.21l.44-.44h9.25Z"/><path class="cls-1" d="m160.57,428.91l.44.44v9.34l-.44.44h-28.8v12.92h21.38l.44.44v9.34l-.44.44h-21.38v17.54h30.63l.44.44v9.34l-.44.44h-40.32l-.44-.44v-60.21l.44-.44h38.48Z"/><path class="cls-1" d="m205.86,428.91l.87.44,20.25,24.43,20.16-24.43.87-.44h9.08l.44.44v60.21l-.44.44h-9.34l-.44-.44v-45.2l-19.9,24h-.87l-19.98-24v45.2l-.44.44h-9.25l-.44-.44v-60.21l.44-.44h8.99Z"/><path class="cls-1" d="m308.92,428.91l.44.44v9.34l-.44.44h-28.8v12.92h21.38l.44.44v9.34l-.44.44h-21.38v17.54h30.63l.44.44v9.34l-.44.44h-40.32l-.44-.44v-60.21l.44-.44h38.48Z"/><path class="cls-1" d="m372.89,444.44c-6.02-4.62-13.96-6.2-21.38-6.2-12.83,0-21.64,9.42-21.64,21.21s9.08,21.21,22.08,21.21c3.84,0,8.2-.7,11.69-2.27v-13.44h-10.73l-.44-.44v-9.25l.44-.44h20.51l.44.44v29.76c-6.54,4.28-14.05,6.28-21.9,6.28-18.76,0-33.6-13.96-33.6-31.85s14.4-31.85,33.16-31.85c8.29,0,15.79,1.13,21.82,4.97v11.43l-.44.44Z"/><path class="cls-1" d="m414.08,428.91l.44.44,23.82,60.21-.44.44h-10.73l-.44-.44-5.06-13.26h-24.87l-5.15,13.26-.44.44h-10.73l-.44-.44,23.91-60.21.44-.44h9.69Zm-13.61,37.26h17.54l-8.81-23.56-8.73,23.56Z"/><path class="cls-1" d="m462.51,428.91c12.65,0,20.51,7.77,20.51,17.8,0,6.98-3.75,12.57-9.77,15.18l20.42,27.66-.44.44h-11.96l-.44-.44-18.76-25.04h-6.46v25.04l-.44.44h-9.25l-.44-.44v-60.21l.44-.44h16.58Zm-6.89,25.48h6.89c5.67,0,8.99-2.79,8.99-7.68s-3.32-7.59-8.99-7.59h-6.89v15.27Z"/><path class="cls-1" d="m558.07,459.45c0,17.71-14.49,31.85-32.29,31.85s-32.29-14.14-32.29-31.85,14.4-31.85,32.29-31.85,32.29,14.14,32.29,31.85Zm-53.06,0c0,11.87,9.25,21.21,20.77,21.21s20.77-9.34,20.77-21.21-9.25-21.21-20.77-21.21-20.77,9.34-20.77,21.21Z"/></g><polygon class="cls-17" points="157.86 47.21 157.86 47.21 157.86 47.21 157.86 47.21 157.86 47.21 118.32 70.28 118.32 47.21 118.32 47.21 118.32 24.15 157.86 47.21"/><polygon class="cls-5" points="157.86 93.34 157.86 93.34 157.86 93.34 157.86 93.34 157.86 93.34 118.32 116.41 118.32 93.34 118.32 93.34 118.32 70.28 157.86 93.34"/><polygon class="cls-15" points="157.86 139.47 157.86 139.47 157.86 139.47 157.86 139.47 157.86 139.47 118.32 162.54 118.32 139.47 118.32 139.47 118.32 116.41 157.86 139.47"/><polygon class="cls-12" points="157.86 185.19 157.86 185.19 157.86 185.19 157.86 185.19 157.86 185.19 118.32 208.25 118.32 185.19 118.32 185.19 118.32 162.12 157.86 185.19"/><polygon class="cls-8" points="157.86 231.32 157.86 231.32 157.86 231.32 157.86 231.32 157.86 231.32 118.32 254.38 118.32 231.32 118.32 231.32 118.32 208.25 157.86 231.32"/><polygon class="cls-10" points="157.86 277.45 157.86 277.45 157.86 277.45 157.86 277.45 157.86 277.45 118.32 300.51 118.32 277.45 118.32 277.45 118.32 254.38 157.86 277.45"/><polygon class="cls-7" points="157.86 323.57 157.86 323.57 157.86 323.57 157.86 323.57 157.86 323.57 118.32 346.64 118.32 323.57 118.32 323.57 118.32 300.51 157.86 323.57"/><polygon class="cls-9" points="118.32 70.28 118.32 70.28 118.32 70.28 118.32 70.28 118.32 70.28 157.86 93.34 157.86 70.28 157.86 70.28 157.86 47.21 118.32 70.28"/><polygon class="cls-3" points="118.32 116.41 118.32 116.41 118.32 116.41 118.32 116.41 118.32 116.41 157.86 139.47 157.86 116.41 157.86 116.41 157.86 93.34 118.32 116.41"/><polygon class="cls-2" points="118.32 162.54 118.32 162.54 118.32 162.54 118.32 162.54 118.32 162.54 157.86 185.6 157.86 162.54 157.86 162.54 157.86 139.47 118.32 162.54"/><polygon class="cls-13" points="118.32 208.25 118.32 208.25 118.32 208.25 118.32 208.25 118.32 208.25 157.86 231.32 157.86 208.25 157.86 208.25 157.86 185.19 118.32 208.25"/><polygon class="cls-4" points="118.32 254.38 118.32 254.38 118.32 254.38 118.32 254.38 118.32 254.38 157.86 277.45 157.86 254.38 157.86 254.38 157.86 231.32 118.32 254.38"/><polygon class="cls-11" points="118.32 300.51 118.32 300.51 118.32 300.51 118.32 300.51 118.32 300.51 157.86 323.57 157.86 300.51 157.86 300.51 157.86 277.45 118.32 300.51"/><polygon class="cls-14" points="118.32 346.64 118.32 346.64 118.32 346.64 118.32 346.64 118.32 346.64 157.86 369.7 157.86 346.64 157.86 346.64 157.86 323.57 118.32 346.64"/><polygon class="cls-9" points="157.86 93.34 157.86 93.34 157.86 93.34 157.86 93.34 157.86 93.34 197.4 116.41 197.4 93.34 197.4 93.34 197.4 70.28 157.86 93.34"/><polygon class="cls-3" points="157.86 139.47 157.86 139.47 157.86 139.47 157.86 139.47 157.86 139.47 197.4 162.54 197.4 139.47 197.4 139.47 197.4 116.41 157.86 139.47"/><polygon class="cls-2" points="157.86 185.6 157.86 185.6 157.86 185.6 157.86 185.6 157.86 185.6 197.4 208.67 197.4 185.6 197.4 185.6 197.4 162.54 157.86 185.6"/><polygon class="cls-13" points="157.86 231.32 157.86 231.32 157.86 231.32 157.86 231.32 157.86 231.32 197.4 254.38 197.4 231.32 197.4 231.32 197.4 208.25 157.86 231.32"/><polygon class="cls-4" points="157.86 277.45 157.86 277.45 157.86 277.45 157.86 277.45 157.86 277.45 197.4 300.51 197.4 277.45 197.4 277.45 197.4 254.38 157.86 277.45"/><polygon class="cls-11" points="157.86 323.57 157.86 323.57 157.86 323.57 157.86 323.57 157.86 323.57 197.4 346.64 197.4 323.57 197.4 323.57 197.4 300.51 157.86 323.57"/><polygon class="cls-14" points="157.86 369.7 157.86 369.7 157.86 369.7 157.86 369.7 157.86 369.7 197.4 392.77 197.4 369.7 197.4 369.7 197.4 346.64 157.86 369.7"/><polygon class="cls-17" points="197.4 70.28 197.4 70.28 197.4 70.28 197.4 70.28 197.4 70.28 157.86 93.34 157.86 70.28 157.86 70.28 157.86 47.21 197.4 70.28"/><polygon class="cls-5" points="197.4 116.41 197.4 116.41 197.4 116.41 197.4 116.41 197.4 116.41 157.86 139.47 157.86 116.41 157.86 116.41 157.86 93.34 197.4 116.41"/><polygon class="cls-15" points="197.4 162.54 197.4 162.54 197.4 162.54 197.4 162.54 197.4 162.54 157.86 185.6 157.86 162.54 157.86 162.54 157.86 139.47 197.4 162.54"/><polygon class="cls-12" points="197.4 208.25 197.4 208.25 197.4 208.25 197.4 208.25 197.4 208.25 157.86 231.32 157.86 208.25 157.86 208.25 157.86 185.19 197.4 208.25"/><polygon class="cls-8" points="197.4 254.38 197.4 254.38 197.4 254.38 197.4 254.38 197.4 254.38 157.86 277.45 157.86 254.38 157.86 254.38 157.86 231.32 197.4 254.38"/><polygon class="cls-10" points="197.4 300.51 197.4 300.51 197.4 300.51 197.4 300.51 197.4 300.51 157.86 323.57 157.86 300.51 157.86 300.51 157.86 277.45 197.4 300.51"/><polygon class="cls-7" points="197.4 346.64 197.4 346.64 197.4 346.64 197.4 346.64 197.4 346.64 157.86 369.7 157.86 346.64 157.86 346.64 157.86 323.57 197.4 346.64"/><polygon class="cls-17" points="236.94 93.34 236.94 93.34 236.94 93.34 236.94 93.34 236.94 93.34 197.4 116.41 197.4 93.34 197.4 93.34 197.4 70.28 236.94 93.34"/><polygon class="cls-5" points="236.94 139.47 236.94 139.47 236.94 139.47 236.94 139.47 236.94 139.47 197.4 162.54 197.4 139.47 197.4 139.47 197.4 116.41 236.94 139.47"/><polygon class="cls-15" points="236.94 185.6 236.94 185.6 236.94 185.6 236.94 185.6 236.94 185.6 197.4 208.67 197.4 185.6 197.4 185.6 197.4 162.54 236.94 185.6"/><polygon class="cls-12" points="236.94 231.32 236.94 231.32 236.94 231.32 236.94 231.32 236.94 231.32 197.4 254.38 197.4 231.32 197.4 231.32 197.4 208.25 236.94 231.32"/><polygon class="cls-9" points="197.4 116.41 197.4 116.41 197.4 116.41 197.4 116.41 197.4 116.41 236.94 139.47 236.94 116.41 236.94 116.41 236.94 93.34 197.4 116.41"/><polygon class="cls-3" points="197.4 162.54 197.4 162.54 197.4 162.54 197.4 162.54 197.4 162.54 236.94 185.6 236.94 162.54 236.94 162.54 236.94 139.47 197.4 162.54"/><polygon class="cls-2" points="197.4 208.67 197.4 208.67 197.4 208.67 197.4 208.67 197.4 208.67 236.94 231.73 236.94 208.67 236.94 208.67 236.94 185.6 197.4 208.67"/><polygon class="cls-13" points="197.4 254.38 197.4 254.38 197.4 254.38 197.4 254.38 197.4 254.38 236.94 277.45 236.94 254.38 236.94 254.38 236.94 231.32 197.4 254.38"/><polygon class="cls-9" points="236.94 139.47 236.94 139.47 236.94 139.47 236.94 139.47 236.94 139.47 276.48 162.54 276.48 139.47 276.48 139.47 276.48 116.41 236.94 139.47"/><polygon class="cls-3" points="236.94 185.6 236.94 185.6 236.94 185.6 236.94 185.6 236.94 185.6 276.48 208.67 276.48 185.6 276.48 185.6 276.48 162.54 236.94 185.6"/><polygon class="cls-2" points="236.94 231.73 236.94 231.73 236.94 231.73 236.94 231.73 236.94 231.73 276.48 254.79 276.48 231.73 276.48 231.73 276.48 208.67 236.94 231.73"/><polygon class="cls-13" points="236.94 277.45 236.94 277.45 236.94 277.45 236.94 277.45 236.94 277.45 276.48 300.51 276.48 277.45 276.48 277.45 276.48 254.38 236.94 277.45"/><polygon class="cls-17" points="276.48 116.41 276.48 116.41 276.48 116.41 276.48 116.41 276.48 116.41 236.94 139.47 236.94 116.41 236.94 116.41 236.94 93.34 276.48 116.41"/><polygon class="cls-5" points="276.48 162.54 276.48 162.54 276.48 162.54 276.48 162.54 276.48 162.54 236.94 185.6 236.94 162.54 236.94 162.54 236.94 139.47 276.48 162.54"/><polygon class="cls-15" points="276.48 208.67 276.48 208.67 276.48 208.67 276.48 208.67 276.48 208.67 236.94 231.73 236.94 208.67 236.94 208.67 236.94 185.6 276.48 208.67"/><polygon class="cls-12" points="276.48 254.38 276.48 254.38 276.48 254.38 276.48 254.38 276.48 254.38 236.94 277.45 236.94 254.38 236.94 254.38 236.94 231.32 276.48 254.38"/><polygon class="cls-9" points="316.02 139.47 316.02 139.47 316.02 139.47 316.02 139.47 316.02 139.47 276.48 162.54 276.48 139.47 276.48 139.47 276.48 116.41 316.02 139.47"/><polygon class="cls-3" points="316.02 185.6 316.02 185.6 316.02 185.6 316.02 185.6 316.02 185.6 276.48 208.67 276.48 185.6 276.48 185.6 276.48 162.54 316.02 185.6"/><polygon class="cls-2" points="316.02 231.73 316.02 231.73 316.02 231.73 316.02 231.73 316.02 231.73 276.48 254.79 276.48 231.73 276.48 231.73 276.48 208.67 316.02 231.73"/><polygon class="cls-13" points="316.02 277.45 316.02 277.45 316.02 277.45 316.02 277.45 316.02 277.45 276.48 300.51 276.48 277.45 276.48 277.45 276.48 254.38 316.02 277.45"/><polygon class="cls-17" points="276.48 116.41 276.48 116.41 276.48 116.41 276.48 116.41 276.48 116.41 316.02 139.47 316.02 116.41 316.02 116.41 316.02 93.34 276.48 116.41"/><polygon class="cls-5" points="276.48 162.54 276.48 162.54 276.48 162.54 276.48 162.54 276.48 162.54 316.02 185.6 316.02 162.54 316.02 162.54 316.02 139.47 276.48 162.54"/><polygon class="cls-15" points="276.48 208.67 276.48 208.67 276.48 208.67 276.48 208.67 276.48 208.67 316.02 231.73 316.02 208.67 316.02 208.67 316.02 185.6 276.48 208.67"/><polygon class="cls-12" points="276.48 254.38 276.48 254.38 276.48 254.38 276.48 254.38 276.48 254.38 316.02 277.45 316.02 254.38 316.02 254.38 316.02 231.32 276.48 254.38"/><polygon class="cls-17" points="316.02 93.34 316.02 93.34 316.02 93.34 316.02 93.34 316.02 93.34 355.56 116.41 355.56 93.34 355.56 93.34 355.56 70.28 316.02 93.34"/><polygon class="cls-5" points="316.02 139.47 316.02 139.47 316.02 139.47 316.02 139.47 316.02 139.47 355.56 162.54 355.56 139.47 355.56 139.47 355.56 116.41 316.02 139.47"/><polygon class="cls-15" points="316.02 185.6 316.02 185.6 316.02 185.6 316.02 185.6 316.02 185.6 355.56 208.67 355.56 185.6 355.56 185.6 355.56 162.54 316.02 185.6"/><polygon class="cls-12" points="316.02 231.32 316.02 231.32 316.02 231.32 316.02 231.32 316.02 231.32 355.56 254.38 355.56 231.32 355.56 231.32 355.56 208.25 316.02 231.32"/><polygon class="cls-9" points="355.56 116.41 355.56 116.41 355.56 116.41 355.56 116.41 355.56 116.41 316.02 139.47 316.02 116.41 316.02 116.41 316.02 93.34 355.56 116.41"/><polygon class="cls-3" points="355.56 162.54 355.56 162.54 355.56 162.54 355.56 162.54 355.56 162.54 316.02 185.6 316.02 162.54 316.02 162.54 316.02 139.47 355.56 162.54"/><polygon class="cls-2" points="355.56 208.67 355.56 208.67 355.56 208.67 355.56 208.67 355.56 208.67 316.02 231.73 316.02 208.67 316.02 208.67 316.02 185.6 355.56 208.67"/><polygon class="cls-13" points="355.56 254.38 355.56 254.38 355.56 254.38 355.56 254.38 355.56 254.38 316.02 277.45 316.02 254.38 316.02 254.38 316.02 231.32 355.56 254.38"/><polygon class="cls-9" points="395.1 93.34 395.1 93.34 395.1 93.34 395.1 93.34 395.1 93.34 355.56 116.41 355.56 93.34 355.56 93.34 355.56 70.28 395.1 93.34"/><polygon class="cls-3" points="395.1 139.47 395.1 139.47 395.1 139.47 395.1 139.47 395.1 139.47 355.56 162.54 355.56 139.47 355.56 139.47 355.56 116.41 395.1 139.47"/><polygon class="cls-2" points="395.1 185.6 395.1 185.6 395.1 185.6 395.1 185.6 395.1 185.6 355.56 208.67 355.56 185.6 355.56 185.6 355.56 162.54 395.1 185.6"/><polygon class="cls-13" points="395.1 231.32 395.1 231.32 395.1 231.32 395.1 231.32 395.1 231.32 355.56 254.38 355.56 231.32 355.56 231.32 355.56 208.25 395.1 231.32"/><polygon class="cls-4" points="395.1 277.45 395.1 277.45 395.1 277.45 395.1 277.45 395.1 277.45 355.56 300.51 355.56 277.45 355.56 277.45 355.56 254.38 395.1 277.45"/><polygon class="cls-11" points="395.1 323.57 395.1 323.57 395.1 323.57 395.1 323.57 395.1 323.57 355.56 346.64 355.56 323.57 355.56 323.57 355.56 300.51 395.1 323.57"/><polygon class="cls-14" points="395.1 369.7 395.1 369.7 395.1 369.7 395.1 369.7 395.1 369.7 355.56 392.77 355.56 369.7 355.56 369.7 355.56 346.64 395.1 369.7"/><polygon class="cls-17" points="355.56 70.28 355.56 70.28 355.56 70.28 355.56 70.28 355.56 70.28 395.1 93.34 395.1 70.28 395.1 70.28 395.1 47.21 355.56 70.28"/><polygon class="cls-5" points="355.56 116.41 355.56 116.41 355.56 116.41 355.56 116.41 355.56 116.41 395.1 139.47 395.1 116.41 395.1 116.41 395.1 93.34 355.56 116.41"/><polygon class="cls-15" points="355.56 162.54 355.56 162.54 355.56 162.54 355.56 162.54 355.56 162.54 395.1 185.6 395.1 162.54 395.1 162.54 395.1 139.47 355.56 162.54"/><polygon class="cls-12" points="355.56 208.25 355.56 208.25 355.56 208.25 355.56 208.25 355.56 208.25 395.1 231.32 395.1 208.25 395.1 208.25 395.1 185.19 355.56 208.25"/><polygon class="cls-8" points="355.56 254.38 355.56 254.38 355.56 254.38 355.56 254.38 355.56 254.38 395.1 277.45 395.1 254.38 395.1 254.38 395.1 231.32 355.56 254.38"/><polygon class="cls-10" points="355.56 300.51 355.56 300.51 355.56 300.51 355.56 300.51 355.56 300.51 395.1 323.57 395.1 300.51 395.1 300.51 395.1 277.45 355.56 300.51"/><polygon class="cls-7" points="355.56 346.64 355.56 346.64 355.56 346.64 355.56 346.64 355.56 346.64 395.1 369.7 395.1 346.64 395.1 346.64 395.1 323.57 355.56 346.64"/><polygon class="cls-17" points="395.1 47.21 395.1 47.21 395.1 47.21 395.1 47.21 395.1 47.21 434.64 70.28 434.64 47.21 434.64 47.21 434.64 24.15 395.1 47.21"/><polygon class="cls-5" points="395.1 93.34 395.1 93.34 395.1 93.34 395.1 93.34 395.1 93.34 434.64 116.41 434.64 93.34 434.64 93.34 434.64 70.28 395.1 93.34"/><polygon class="cls-15" points="395.1 139.47 395.1 139.47 395.1 139.47 395.1 139.47 395.1 139.47 434.64 162.54 434.64 139.47 434.64 139.47 434.64 116.41 395.1 139.47"/><polygon class="cls-12" points="395.1 185.19 395.1 185.19 395.1 185.19 395.1 185.19 395.1 185.19 434.64 208.25 434.64 185.19 434.64 185.19 434.64 162.12 395.1 185.19"/><polygon class="cls-8" points="395.1 231.32 395.1 231.32 395.1 231.32 395.1 231.32 395.1 231.32 434.64 254.38 434.64 231.32 434.64 231.32 434.64 208.25 395.1 231.32"/><polygon class="cls-10" points="395.1 277.45 395.1 277.45 395.1 277.45 395.1 277.45 395.1 277.45 434.64 300.51 434.64 277.45 434.64 277.45 434.64 254.38 395.1 277.45"/><polygon class="cls-7" points="395.1 323.57 395.1 323.57 395.1 323.57 395.1 323.57 395.1 323.57 434.64 346.64 434.64 323.57 434.64 323.57 434.64 300.51 395.1 323.57"/><polygon class="cls-16" points="236.94 277.45 236.94 277.45 236.94 277.45 236.94 277.45 236.94 277.45 197.4 300.51 197.4 277.45 197.4 277.45 197.4 254.38 236.94 277.45"/><polygon class="cls-16" points="236.94 323.57 236.94 323.57 236.94 323.57 236.94 323.57 236.94 323.57 197.4 346.64 197.4 323.57 197.4 323.57 197.4 300.51 236.94 323.57"/><polygon class="cls-16" points="236.94 369.7 236.94 369.7 236.94 369.7 236.94 369.7 236.94 369.7 197.4 392.77 197.4 369.7 197.4 369.7 197.4 346.64 236.94 369.7"/><polygon class="cls-16" points="197.4 300.51 197.4 300.51 197.4 300.51 197.4 300.51 197.4 300.51 236.94 323.57 236.94 300.51 236.94 300.51 236.94 277.45 197.4 300.51"/><polygon class="cls-16" points="197.4 346.64 197.4 346.64 197.4 346.64 197.4 346.64 197.4 346.64 236.94 369.7 236.94 346.64 236.94 346.64 236.94 323.57 197.4 346.64"/><polygon class="cls-16" points="316.02 277.45 316.02 277.45 316.02 277.45 316.02 277.45 316.02 277.45 355.56 300.51 355.56 277.45 355.56 277.45 355.56 254.38 316.02 277.45"/><polygon class="cls-16" points="316.02 323.57 316.02 323.57 316.02 323.57 316.02 323.57 316.02 323.57 355.56 346.64 355.56 323.57 355.56 323.57 355.56 300.51 316.02 323.57"/><polygon class="cls-16" points="316.02 369.7 316.02 369.7 316.02 369.7 316.02 369.7 316.02 369.7 355.56 392.77 355.56 369.7 355.56 369.7 355.56 346.64 316.02 369.7"/><polygon class="cls-16" points="355.56 300.51 355.56 300.51 355.56 300.51 355.56 300.51 355.56 300.51 316.02 323.57 316.02 300.51 316.02 300.51 316.02 277.45 355.56 300.51"/><polygon class="cls-16" points="355.56 346.64 355.56 346.64 355.56 346.64 355.56 346.64 355.56 346.64 316.02 369.7 316.02 346.64 316.02 346.64 316.02 323.57 355.56 346.64"/><g><polygon class="cls-16" points="197.4 24.15 157.86 1.08 157.86 1.08 157.86 1.08 157.86 1.08 157.86 1.08 118.32 24.15 157.86 47.21 157.86 47.21 157.86 47.21 157.86 47.21 157.86 47.21 197.4 24.15"/><polygon class="cls-16" points="236.94 47.21 197.4 24.15 197.4 24.15 197.4 24.15 197.4 24.15 197.4 24.15 157.86 47.21 197.4 70.28 197.4 70.28 197.4 70.28 197.4 70.28 197.4 70.28 236.94 47.21"/><polygon class="cls-16" points="276.48 116.41 316.02 93.34 276.48 70.28 236.94 93.34 276.48 116.41"/><polygon class="cls-16" points="276.48 70.28 236.94 47.21 236.94 47.21 236.94 47.21 236.94 47.21 236.94 47.21 197.4 70.28 236.94 93.34 236.94 93.34 236.94 93.34 236.94 93.34 236.94 93.34 276.48 70.28"/><polygon class="cls-16" points="316.02 93.34 355.56 70.28 316.02 47.21 276.48 70.28 316.02 93.34"/><polygon class="cls-16" points="316.02 47.21 355.56 70.28 395.1 47.21 355.56 24.15 316.02 47.21"/><polygon class="cls-16" points="395.1 1.08 355.56 24.15 395.1 47.21 434.64 24.15 395.1 1.08"/></g><polygon class="cls-9" points="434.64 70.28 434.64 70.28 434.64 70.28 434.64 70.28 434.64 70.28 395.1 93.34 395.1 70.28 395.1 70.28 395.1 47.21 434.64 70.28"/><polygon class="cls-3" points="434.64 116.41 434.64 116.41 434.64 116.41 434.64 116.41 434.64 116.41 395.1 139.47 395.1 116.41 395.1 116.41 395.1 93.34 434.64 116.41"/><polygon class="cls-2" points="434.64 162.54 434.64 162.54 434.64 162.54 434.64 162.54 434.64 162.54 395.1 185.6 395.1 162.54 395.1 162.54 395.1 139.47 434.64 162.54"/><polygon class="cls-13" points="434.64 208.25 434.64 208.25 434.64 208.25 434.64 208.25 434.64 208.25 395.1 231.32 395.1 208.25 395.1 208.25 395.1 185.19 434.64 208.25"/><polygon class="cls-4" points="434.64 254.38 434.64 254.38 434.64 254.38 434.64 254.38 434.64 254.38 395.1 277.45 395.1 254.38 395.1 254.38 395.1 231.32 434.64 254.38"/><polygon class="cls-11" points="434.64 300.51 434.64 300.51 434.64 300.51 434.64 300.51 434.64 300.51 395.1 323.57 395.1 300.51 395.1 300.51 395.1 277.45 434.64 300.51"/><polygon class="cls-14" points="434.64 346.64 434.64 346.64 434.64 346.64 434.64 346.64 434.64 346.64 395.1 369.7 395.1 346.64 395.1 346.64 395.1 323.57 434.64 346.64"/><g><rect class="cls-16" x="157.09" y=".67" width="1.55" height="46.13"/><rect class="cls-16" x="157.09" y="46.8" width="1.55" height="46.13"/><rect class="cls-16" x="157.09" y="92.93" width="1.55" height="46.13"/><rect class="cls-16" x="157.09" y="139.06" width="1.55" height="46.13"/><rect class="cls-16" x="157.09" y="185.19" width="1.55" height="46.13"/><rect class="cls-16" x="157.09" y="231.32" width="1.55" height="46.13"/><rect class="cls-16" x="157.09" y="277.45" width="1.55" height="46.13"/><rect class="cls-16" x="157.09" y="323.57" width="1.55" height="46.13"/><rect class="cls-16" x="117.55" y="23.73" width="1.55" height="46.13"/><rect class="cls-16" x="117.55" y="69.86" width="1.55" height="46.13"/><rect class="cls-16" x="117.55" y="115.99" width="1.55" height="46.13"/><rect class="cls-16" x="117.55" y="162.12" width="1.55" height="46.13"/><rect class="cls-16" x="117.55" y="208.25" width="1.55" height="46.13"/><rect class="cls-16" x="117.55" y="254.38" width="1.55" height="46.13"/><line class="cls-6" x1="118.32" y1="300.51" x2="118.32" y2="346.64"/><rect class="cls-16" x="236.17" y="46.8" width="1.55" height="46.13"/><rect class="cls-16" x="236.17" y="92.93" width="1.55" height="46.13"/><rect class="cls-16" x="236.17" y="139.06" width="1.55" height="46.13"/><rect class="cls-16" x="236.17" y="185.19" width="1.55" height="46.13"/><rect class="cls-16" x="236.17" y="231.32" width="1.55" height="46.13"/><rect class="cls-16" x="236.17" y="277.45" width="1.55" height="46.13"/><rect class="cls-16" x="236.17" y="323.57" width="1.55" height="46.13"/><rect class="cls-16" x="196.63" y="23.73" width="1.55" height="46.13"/><rect class="cls-16" x="196.63" y="69.86" width="1.55" height="46.13"/><rect class="cls-16" x="196.63" y="115.99" width="1.55" height="46.13"/><rect class="cls-16" x="196.63" y="162.12" width="1.55" height="46.13"/><rect class="cls-16" x="196.63" y="208.25" width="1.55" height="46.13"/><rect class="cls-16" x="196.63" y="254.38" width="1.55" height="46.13"/><rect class="cls-16" x="196.63" y="300.51" width="1.55" height="46.13"/><rect class="cls-16" x="196.63" y="346.64" width="1.55" height="46.13"/><rect class="cls-16" x="315.25" y="46.8" width="1.55" height="46.13"/><rect class="cls-16" x="315.25" y="92.93" width="1.55" height="46.13"/><rect class="cls-16" x="315.25" y="139.06" width="1.55" height="46.13"/><rect class="cls-16" x="315.25" y="185.19" width="1.55" height="46.13"/><rect class="cls-16" x="315.25" y="231.32" width="1.55" height="46.13"/><rect class="cls-16" x="315.25" y="277.45" width="1.55" height="46.13"/><rect class="cls-16" x="315.25" y="323.57" width="1.55" height="46.13"/><rect class="cls-16" x="275.71" y="69.86" width="1.55" height="46.13"/><rect class="cls-16" x="275.71" y="115.99" width="1.55" height="46.13"/><rect class="cls-16" x="275.71" y="162.12" width="1.55" height="46.13"/><rect class="cls-16" x="275.71" y="208.25" width="1.55" height="46.13"/><rect class="cls-16" x="275.71" y="254.38" width="1.55" height="46.13"/><rect class="cls-16" x="394.32" y=".67" width="1.55" height="46.13"/><rect class="cls-16" x="394.32" y="46.8" width="1.55" height="46.13"/><rect class="cls-16" x="394.32" y="92.93" width="1.55" height="46.13"/><rect class="cls-16" x="394.32" y="139.06" width="1.55" height="46.13"/><rect class="cls-16" x="394.32" y="185.19" width="1.55" height="46.13"/><rect class="cls-16" x="394.32" y="231.32" width="1.55" height="46.13"/><rect class="cls-16" x="394.32" y="277.45" width="1.55" height="46.13"/><rect class="cls-16" x="394.32" y="323.57" width="1.55" height="46.13"/><rect class="cls-16" x="354.79" y="23.73" width="1.55" height="46.13"/><rect class="cls-16" x="354.79" y="69.86" width="1.55" height="46.13"/><rect class="cls-16" x="354.79" y="115.99" width="1.55" height="46.13"/><rect class="cls-16" x="354.79" y="162.12" width="1.55" height="46.13"/><rect class="cls-16" x="354.79" y="208.25" width="1.55" height="46.13"/><rect class="cls-16" x="354.79" y="254.38" width="1.55" height="46.13"/><rect class="cls-16" x="354.79" y="300.51" width="1.55" height="46.13"/><rect class="cls-16" x="354.79" y="346.64" width="1.55" height="46.13"/><rect class="cls-16" x="433.86" y="23.73" width="1.55" height="46.13"/><rect class="cls-16" x="433.86" y="69.86" width="1.55" height="46.13"/><rect class="cls-16" x="433.86" y="115.99" width="1.55" height="46.13"/><rect class="cls-16" x="433.86" y="162.12" width="1.55" height="46.13"/><rect class="cls-16" x="433.86" y="208.25" width="1.55" height="46.13"/><rect class="cls-16" x="433.86" y="254.38" width="1.55" height="46.13"/><rect class="cls-16" x="433.86" y="300.51" width="1.55" height="46.13"/><line class="cls-16" x1="158.26" y1="1.34" x2="157.47"/><rect class="cls-16" x="115.21" y="11.43" width="45.78" height="1.55" transform="translate(12.67 71.25) rotate(-30.26)"/><rect class="cls-16" x="154.75" y="34.49" width="45.77" height="1.55" transform="translate(6.43 94.32) rotate(-30.26)"/><rect class="cls-16" x="194.28" y="57.56" width="45.77" height="1.55" transform="translate(.19 117.38) rotate(-30.26)"/><rect class="cls-16" x="233.82" y="80.62" width="45.77" height="1.55" transform="translate(-6.04 140.45) rotate(-30.26)"/><rect class="cls-16" x="295.48" y="58.51" width="1.55" height="45.77" transform="translate(76.67 296.28) rotate(-59.74)"/><rect class="cls-16" x="335.02" y="35.44" width="1.55" height="45.77" transform="translate(116.21 318.99) rotate(-59.74)"/><rect class="cls-16" x="374.56" y="12.38" width="1.55" height="45.77" transform="translate(155.75 341.7) rotate(-59.74)"/><rect class="cls-16" x="414.09" y="-10.69" width="1.55" height="45.77" transform="translate(195.29 364.41) rotate(-59.74)"/><rect class="cls-16" x="352.44" y="11.43" width="45.77" height="1.55" transform="translate(44.99 190.79) rotate(-30.26)"/><rect class="cls-16" x="312.9" y="34.49" width="45.77" height="1.55" transform="translate(27.98 174.02) rotate(-30.26)"/><rect class="cls-16" x="273.36" y="57.56" width="45.77" height="1.55" transform="translate(10.97 157.22) rotate(-30.26)"/><rect class="cls-16" x="255.94" y="35.44" width="1.55" height="45.77" transform="translate(76.98 250.68) rotate(-59.74)"/><rect class="cls-16" x="216.4" y="12.38" width="1.55" height="45.77" transform="translate(77.28 205.09) rotate(-59.74)"/><rect class="cls-16" x="176.86" y="-10.69" width="1.55" height="45.77" transform="translate(77.59 159.49) rotate(-59.74)"/><rect class="cls-16" x="115.21" y="57.56" width="45.78" height="1.55" transform="translate(-10.58 77.53) rotate(-30.26)"/><rect class="cls-16" x="154.75" y="80.62" width="45.77" height="1.55" transform="translate(-16.81 100.6) rotate(-30.26)"/><rect class="cls-16" x="194.28" y="103.69" width="45.77" height="1.55" transform="translate(-23.05 123.67) rotate(-30.26)"/><rect class="cls-16" x="233.82" y="126.75" width="45.77" height="1.55" transform="translate(-29.29 146.73) rotate(-30.26)"/><rect class="cls-16" x="295.48" y="104.64" width="1.55" height="45.77" transform="translate(36.83 319.16) rotate(-59.74)"/><rect class="cls-16" x="335.02" y="81.57" width="1.55" height="45.77" transform="translate(76.36 341.87) rotate(-59.74)"/><rect class="cls-16" x="374.56" y="58.51" width="1.55" height="45.77" transform="translate(115.9 364.59) rotate(-59.74)"/><rect class="cls-16" x="414.09" y="35.44" width="1.55" height="45.77" transform="translate(155.44 387.3) rotate(-59.74)"/><rect class="cls-16" x="352.44" y="57.56" width="45.77" height="1.55" transform="translate(21.74 197.07) rotate(-30.26)"/><rect class="cls-16" x="312.9" y="80.62" width="45.77" height="1.55" transform="translate(4.74 180.31) rotate(-30.26)"/><rect class="cls-16" x="273.36" y="103.69" width="45.77" height="1.55" transform="translate(-12.28 163.51) rotate(-30.26)"/><rect class="cls-16" x="255.94" y="81.57" width="1.55" height="45.77" transform="translate(37.13 273.57) rotate(-59.74)"/><rect class="cls-16" x="216.4" y="58.51" width="1.55" height="45.77" transform="translate(37.44 227.97) rotate(-59.74)"/><rect class="cls-16" x="176.86" y="35.44" width="1.55" height="45.77" transform="translate(37.74 182.37) rotate(-59.74)"/><rect class="cls-16" x="115.21" y="103.69" width="45.78" height="1.55" transform="translate(-33.82 83.82) rotate(-30.26)"/><rect class="cls-16" x="154.75" y="126.75" width="45.77" height="1.55" transform="translate(-40.06 106.88) rotate(-30.26)"/><rect class="cls-16" x="194.28" y="149.81" width="45.77" height="1.55" transform="translate(-46.29 129.94) rotate(-30.26)"/><rect class="cls-16" x="233.82" y="172.88" width="45.77" height="1.55" transform="translate(-52.53 153.02) rotate(-30.26)"/><rect class="cls-16" x="295.48" y="150.77" width="1.55" height="45.77" transform="translate(-3.02 342.05) rotate(-59.74)"/><rect class="cls-16" x="335.02" y="127.7" width="1.55" height="45.77" transform="translate(36.52 364.76) rotate(-59.74)"/><rect class="cls-16" x="374.56" y="104.64" width="1.55" height="45.77" transform="translate(76.06 387.47) rotate(-59.74)"/><rect class="cls-16" x="414.09" y="81.57" width="1.55" height="45.77" transform="translate(115.6 410.18) rotate(-59.74)"/><rect class="cls-16" x="352.44" y="103.69" width="45.77" height="1.55" transform="translate(-1.5 203.36) rotate(-30.26)"/><rect class="cls-16" x="312.9" y="126.75" width="45.77" height="1.55" transform="translate(-18.51 186.59) rotate(-30.26)"/><rect class="cls-16" x="273.36" y="149.81" width="45.77" height="1.55" transform="translate(-35.52 169.79) rotate(-30.26)"/><rect class="cls-16" x="255.94" y="127.7" width="1.55" height="45.77" transform="translate(-2.71 296.45) rotate(-59.74)"/><rect class="cls-16" x="216.4" y="104.64" width="1.55" height="45.77" transform="translate(-2.41 250.86) rotate(-59.74)"/><rect class="cls-16" x="176.86" y="81.57" width="1.55" height="45.77" transform="translate(-2.1 205.26) rotate(-59.74)"/><rect class="cls-16" x="115.21" y="149.81" width="45.78" height="1.55" transform="translate(-57.07 90.1) rotate(-30.26)"/><rect class="cls-16" x="154.75" y="172.88" width="45.77" height="1.55" transform="translate(-63.3 113.17) rotate(-30.26)"/><rect class="cls-16" x="194.28" y="195.94" width="45.77" height="1.55" transform="translate(-69.52 136.16) rotate(-30.24)"/><rect class="cls-16" x="233.82" y="219.01" width="45.77" height="1.55" transform="translate(-75.76 159.21) rotate(-30.24)"/><rect class="cls-16" x="295.48" y="196.9" width="1.55" height="45.77" transform="translate(-42.87 364.94) rotate(-59.74)"/><rect class="cls-16" x="335.02" y="173.83" width="1.55" height="45.77" transform="translate(-3.33 387.64) rotate(-59.74)"/><rect class="cls-16" x="374.56" y="150.77" width="1.55" height="45.77" transform="translate(36.21 410.36) rotate(-59.74)"/><rect class="cls-16" x="414.09" y="127.7" width="1.55" height="45.77" transform="translate(75.75 433.07) rotate(-59.74)"/><rect class="cls-16" x="352.44" y="149.81" width="45.77" height="1.55" transform="translate(-24.75 209.64) rotate(-30.26)"/><rect class="cls-16" x="312.9" y="172.88" width="45.77" height="1.55" transform="translate(-41.76 192.88) rotate(-30.26)"/><rect class="cls-16" x="273.36" y="195.94" width="45.77" height="1.55" transform="translate(-58.76 175.99) rotate(-30.24)"/><rect class="cls-16" x="255.94" y="173.83" width="1.55" height="45.77" transform="translate(-42.56 319.34) rotate(-59.74)"/><rect class="cls-16" x="216.4" y="150.77" width="1.55" height="45.77" transform="translate(-42.25 273.74) rotate(-59.74)"/><rect class="cls-16" x="176.86" y="127.7" width="1.55" height="45.77" transform="translate(-41.95 228.14) rotate(-59.74)"/><rect class="cls-16" x="115.21" y="195.94" width="45.78" height="1.55" transform="translate(-80.29 96.33) rotate(-30.24)"/><rect class="cls-16" x="154.75" y="219.01" width="45.77" height="1.55" transform="translate(-86.55 119.45) rotate(-30.26)"/><rect class="cls-16" x="194.28" y="242.07" width="45.77" height="1.55" transform="translate(-92.76 142.44) rotate(-30.24)"/><rect class="cls-16" x="233.82" y="265.14" width="45.77" height="1.55" transform="translate(-98.99 165.5) rotate(-30.24)"/><rect class="cls-16" x="295.48" y="243.03" width="1.55" height="45.77" transform="translate(-82.71 387.82) rotate(-59.74)"/><rect class="cls-16" x="335.02" y="219.96" width="1.55" height="45.77" transform="translate(-43.17 410.53) rotate(-59.74)"/><rect class="cls-16" x="374.55" y="196.9" width="1.55" height="45.77" transform="translate(-3.63 433.24) rotate(-59.74)"/><rect class="cls-16" x="414.09" y="173.83" width="1.55" height="45.77" transform="translate(35.91 455.95) rotate(-59.74)"/><rect class="cls-16" x="352.44" y="195.94" width="45.77" height="1.55" transform="translate(-48 215.83) rotate(-30.24)"/><rect class="cls-16" x="312.9" y="219.01" width="45.77" height="1.55" transform="translate(-65 199.06) rotate(-30.25)"/><rect class="cls-16" x="273.36" y="242.07" width="45.77" height="1.55" transform="translate(-82 182.27) rotate(-30.24)"/><rect class="cls-16" x="255.94" y="219.96" width="1.55" height="45.77" transform="translate(-82.4 342.23) rotate(-59.74)"/><rect class="cls-16" x="216.4" y="196.9" width="1.55" height="45.77" transform="translate(-82.1 296.63) rotate(-59.74)"/><rect class="cls-16" x="176.86" y="173.83" width="1.55" height="45.77" transform="translate(-81.79 251.03) rotate(-59.74)"/><rect class="cls-16" x="115.21" y="242.07" width="45.78" height="1.55" transform="translate(-103.52 102.61) rotate(-30.24)"/><rect class="cls-16" x="154.75" y="265.14" width="45.77" height="1.55" transform="translate(-109.79 125.74) rotate(-30.26)"/><rect class="cls-16" x="194.28" y="288.2" width="45.77" height="1.55" transform="translate(-115.99 148.72) rotate(-30.24)"/><rect class="cls-16" x="335.02" y="266.09" width="1.55" height="45.77" transform="translate(-83.02 433.42) rotate(-59.74)"/><rect class="cls-16" x="374.55" y="243.03" width="1.55" height="45.77" transform="translate(-43.48 456.13) rotate(-59.74)"/><rect class="cls-16" x="414.09" y="219.96" width="1.55" height="45.77" transform="translate(-3.94 478.84) rotate(-59.74)"/><rect class="cls-16" x="352.44" y="242.07" width="45.77" height="1.55" transform="translate(-71.23 222.1) rotate(-30.24)"/><rect class="cls-16" x="312.9" y="265.14" width="45.77" height="1.55" transform="translate(-88.23 205.35) rotate(-30.25)"/><rect class="cls-16" x="273.36" y="288.2" width="45.77" height="1.55" transform="translate(-105.23 188.55) rotate(-30.24)"/><rect class="cls-16" x="255.94" y="266.09" width="1.55" height="45.77" transform="translate(-122.25 365.11) rotate(-59.74)"/><rect class="cls-16" x="216.4" y="243.03" width="1.55" height="45.77" transform="translate(-121.94 319.52) rotate(-59.74)"/><rect class="cls-16" x="176.86" y="219.96" width="1.55" height="45.77" transform="translate(-121.64 273.91) rotate(-59.74)"/><rect class="cls-16" x="115.21" y="288.2" width="45.78" height="1.55" transform="translate(-126.76 108.89) rotate(-30.24)"/><rect class="cls-16" x="154.75" y="311.27" width="45.77" height="1.55" transform="translate(-133.04 132.02) rotate(-30.26)"/><rect class="cls-16" x="194.28" y="334.33" width="45.77" height="1.55" transform="translate(-139.23 155) rotate(-30.24)"/><rect class="cls-16" x="335.02" y="312.22" width="1.55" height="45.77" transform="translate(-122.86 456.31) rotate(-59.74)"/><rect class="cls-16" x="374.55" y="289.15" width="1.55" height="45.77" transform="translate(-83.32 479.02) rotate(-59.74)"/><rect class="cls-16" x="414.09" y="266.09" width="1.55" height="45.77" transform="translate(-43.78 501.73) rotate(-59.74)"/><rect class="cls-16" x="352.44" y="288.2" width="45.77" height="1.55" transform="translate(-94.47 228.38) rotate(-30.24)"/><rect class="cls-16" x="176.86" y="266.09" width="1.55" height="45.77" transform="translate(-161.48 296.8) rotate(-59.74)"/><rect class="cls-16" x="115.21" y="334.33" width="45.78" height="1.55" transform="translate(-149.99 115.17) rotate(-30.24)"/><rect class="cls-16" x="154.75" y="357.4" width="45.77" height="1.55" transform="translate(-156.28 138.31) rotate(-30.26)"/><rect class="cls-16" x="194.28" y="380.46" width="45.77" height="1.55" transform="translate(-162.46 161.27) rotate(-30.24)"/><rect class="cls-16" x="335.02" y="358.35" width="1.55" height="45.77" transform="translate(-162.71 479.19) rotate(-59.74)"/><rect class="cls-16" x="374.55" y="335.28" width="1.55" height="45.77" transform="translate(-123.17 501.9) rotate(-59.74)"/><rect class="cls-16" x="414.09" y="312.22" width="1.55" height="45.77" transform="translate(-83.63 524.61) rotate(-59.74)"/><rect class="cls-16" x="352.44" y="334.33" width="45.77" height="1.55" transform="translate(-117.7 234.66) rotate(-30.24)"/><rect class="cls-16" x="176.86" y="312.22" width="1.55" height="45.77" transform="translate(-201.33 319.68) rotate(-59.74)"/><rect class="cls-16" x="352.44" y="380.46" width="45.77" height="1.55" transform="translate(-140.93 240.93) rotate(-30.24)"/><rect class="cls-16" x="176.86" y="358.35" width="1.55" height="45.77" transform="translate(-241.17 342.57) rotate(-59.74)"/><line class="cls-16" x1="158.26" x2="157.47" y2="1.34"/><rect class="cls-16" x="137.32" y="12.38" width="1.55" height="45.78" transform="translate(38.05 136.78) rotate(-59.74)"/><rect class="cls-16" x="391.98" y="34.49" width="45.77" height="1.55" transform="translate(38.75 213.86) rotate(-30.26)"/><rect class="cls-16" x="137.32" y="58.51" width="1.55" height="45.78" transform="translate(-1.79 159.67) rotate(-59.74)"/><rect class="cls-16" x="391.98" y="80.62" width="45.77" height="1.55" transform="translate(15.51 220.14) rotate(-30.26)"/><rect class="cls-16" x="137.32" y="104.64" width="1.55" height="45.78" transform="translate(-41.64 182.55) rotate(-59.74)"/><rect class="cls-16" x="391.98" y="126.75" width="45.77" height="1.55" transform="translate(-7.74 226.42) rotate(-30.26)"/><rect class="cls-16" x="137.32" y="150.77" width="1.55" height="45.78" transform="translate(-81.49 205.44) rotate(-59.74)"/><rect class="cls-16" x="391.98" y="172.88" width="45.77" height="1.55" transform="translate(-30.98 232.71) rotate(-30.26)"/><rect class="cls-16" x="137.32" y="196.9" width="1.55" height="45.78" transform="translate(-121.33 228.33) rotate(-59.74)"/><rect class="cls-16" x="391.98" y="219.01" width="45.77" height="1.55" transform="translate(-54.23 238.87) rotate(-30.24)"/><rect class="cls-16" x="137.32" y="243.03" width="1.55" height="45.78" transform="translate(-161.18 251.21) rotate(-59.74)"/><rect class="cls-16" x="391.98" y="265.14" width="45.77" height="1.55" transform="translate(-77.47 245.16) rotate(-30.24)"/><rect class="cls-16" x="137.32" y="289.15" width="1.55" height="45.78" transform="translate(-201.02 274.1) rotate(-59.74)"/><rect class="cls-16" x="391.98" y="311.27" width="45.77" height="1.55" transform="translate(-100.7 251.44) rotate(-30.24)"/><rect class="cls-16" x="137.32" y="335.28" width="1.55" height="45.78" transform="translate(-240.87 296.99) rotate(-59.74)"/><rect class="cls-16" x="391.98" y="357.4" width="45.77" height="1.55" transform="translate(-123.94 257.72) rotate(-30.24)"/></g></svg>